REM DIRINDEX 1\2,1\4,1\3\5,1\3\6,1\3\7
REM DIRNAME folder01,folder02,folder03,folder04,folder05,folder06,folder07
TITLE ""
FILE "CD2Track74.mp3" MP3
  TRACK 01 AUDIO
    TITLE "0:"
    INDEX 01 00:00:00
  TRACK 02 AUDIO
    TITLE "4:cjc083_2731"
    INDEX 01 00:00:29
  TRACK 03 AUDIO
    TITLE "0:"
    INDEX 01 00:04:35
  TRACK 04 AUDIO
    TITLE "5:cjc083_2732"
    INDEX 01 00:04:72
  TRACK 05 AUDIO
    TITLE "0:"
    INDEX 01 00:07:13
  TRACK 06 AUDIO
    TITLE "6:cjc083_2733"
    INDEX 01 00:07:56
  TRACK 07 AUDIO
    TITLE "0:"
    INDEX 01 00:09:61
  TRACK 08 AUDIO
    TITLE "5:cjc083_2734"
    INDEX 01 00:10:27
  TRACK 09 AUDIO
    TITLE "0:"
    INDEX 01 00:11:31
  TRACK 10 AUDIO
    TITLE "6:cjc083_2735"
    INDEX 01 00:12:07
  TRACK 11 AUDIO
    TITLE "0:"
    INDEX 01 00:14:21
  TRACK 12 AUDIO
    TITLE "5:cjc083_2736"
    INDEX 01 00:14:62
  TRACK 13 AUDIO
    TITLE "0:"
    INDEX 01 00:16:36
  TRACK 14 AUDIO
    TITLE "6:cjc083_2737"
    INDEX 01 00:16:73
  TRACK 15 AUDIO
    TITLE "0:"
    INDEX 01 00:19:13
  TRACK 16 AUDIO
    TITLE "5:cjc083_2738"
    INDEX 01 00:19:56
  TRACK 17 AUDIO
    TITLE "0:"
    INDEX 01 00:21:37
  TRACK 18 AUDIO
    TITLE "6:cjc083_2739"
    INDEX 01 00:21:74
  TRACK 19 AUDIO
    TITLE "0:"
    INDEX 01 00:23:71
  TRACK 20 AUDIO
    TITLE "5:cjc083_2740"
    INDEX 01 00:24:33
  TRACK 21 AUDIO
    TITLE "0:"
    INDEX 01 00:25:56
  TRACK 22 AUDIO
    TITLE "6:cjc083_2741"
    INDEX 01 00:26:26
  TRACK 23 AUDIO
    TITLE "0:"
    INDEX 01 00:27:65
  TRACK 24 AUDIO
    TITLE "5:cjc083_2742"
    INDEX 01 00:28:31
  TRACK 25 AUDIO
    TITLE "0:"
    INDEX 01 00:29:48
  TRACK 26 AUDIO
    TITLE "6:cjc083_2743"
    INDEX 01 00:30:14
  TRACK 27 AUDIO
    TITLE "0:"
    INDEX 01 00:31:20
  TRACK 28 AUDIO
    TITLE "5:cjc083_2744"
    INDEX 01 00:31:65
  TRACK 29 AUDIO
    TITLE "0:"
    INDEX 01 00:33:11
  TRACK 30 AUDIO
    TITLE "6:cjc083_2745"
    INDEX 01 00:33:52
  TRACK 31 AUDIO
    TITLE "0:"
    INDEX 01 00:34:65
  TRACK 32 AUDIO
    TITLE "5:cjc083_2746"
    INDEX 01 00:35:31
  TRACK 33 AUDIO
    TITLE "0:"
    INDEX 01 00:36:35
  TRACK 34 AUDIO
    TITLE "6:cjc083_2747"
    INDEX 01 00:36:74
  TRACK 35 AUDIO
    TITLE "0:"
    INDEX 01 00:38:02
  TRACK 36 AUDIO
    TITLE "5:cjc083_2748"
    INDEX 01 00:38:47
  TRACK 37 AUDIO
    TITLE "0:"
    INDEX 01 00:39:62
  TRACK 38 AUDIO
    TITLE "6:cjc083_2749"
    INDEX 01 00:40:38
  TRACK 39 AUDIO
    TITLE "0:"
    INDEX 01 00:41:55
  TRACK 40 AUDIO
    TITLE "5:cjc083_2750"
    INDEX 01 00:42:31
  TRACK 41 AUDIO
    TITLE "0:"
    INDEX 01 00:43:64
  TRACK 42 AUDIO
    TITLE "6:cjc083_2751"
    INDEX 01 00:44:32
  TRACK 43 AUDIO
    TITLE "0:"
    INDEX 01 00:46:02
  TRACK 44 AUDIO
    TITLE "5:cjc083_2752"
    INDEX 01 00:46:45
  TRACK 45 AUDIO
    TITLE "0:"
    INDEX 01 00:47:62
  TRACK 46 AUDIO
    TITLE "6:cjc083_2753"
    INDEX 01 00:48:32
  TRACK 47 AUDIO
    TITLE "0:"
    INDEX 01 00:50:29
  TRACK 48 AUDIO
    TITLE "5:cjc083_2754"
    INDEX 01 00:50:74
  TRACK 49 AUDIO
    TITLE "0:"
    INDEX 01 00:52:20
  TRACK 50 AUDIO
    TITLE "6:cjc083_2755"
    INDEX 01 00:52:65
  TRACK 51 AUDIO
    TITLE "0:"
    INDEX 01 00:54:01
  TRACK 52 AUDIO
    TITLE "5:cjc083_2756"
    INDEX 01 00:54:40
  TRACK 53 AUDIO
    TITLE "0:"
    INDEX 01 00:55:57
  TRACK 54 AUDIO
    TITLE "6:cjc083_2757"
    INDEX 01 00:56:27
  TRACK 55 AUDIO
    TITLE "0:"
    INDEX 01 00:58:15
  TRACK 56 AUDIO
    TITLE "5:cjc083_2758"
    INDEX 01 00:58:60
  TRACK 57 AUDIO
    TITLE "0:"
    INDEX 01 00:59:73
  TRACK 58 AUDIO
    TITLE "6:cjc083_2759"
    INDEX 01 01:00:41
  TRACK 59 AUDIO
    TITLE "0:"
    INDEX 01 01:01:48
  TRACK 60 AUDIO
    TITLE "5:cjc083_2760"
    INDEX 01 01:02:16
  TRACK 61 AUDIO
    TITLE "0:"
    INDEX 01 01:03:22
  TRACK 62 AUDIO
    TITLE "6:cjc083_2761"
    INDEX 01 01:03:67
  TRACK 63 AUDIO
    TITLE "0:"
    INDEX 01 01:05:07
  TRACK 64 AUDIO
    TITLE "5:cjc083_2762"
    INDEX 01 01:05:46
  TRACK 65 AUDIO
    TITLE "0:"
    INDEX 01 01:06:69
  TRACK 66 AUDIO
    TITLE "6:cjc083_2763"
    INDEX 01 01:07:35
  TRACK 67 AUDIO
    TITLE "0:"
    INDEX 01 01:08:54
  TRACK 68 AUDIO
    TITLE "5:cjc083_2764"
    INDEX 01 01:09:30
  TRACK 69 AUDIO
    TITLE "0:"
    INDEX 01 01:10:45
  TRACK 70 AUDIO
    TITLE "6:cjc083_2765"
    INDEX 01 01:11:15
  TRACK 71 AUDIO
    TITLE "0:"
    INDEX 01 01:13:02
  TRACK 72 AUDIO
    TITLE "5:cjc083_2766"
    INDEX 01 01:13:47
  TRACK 73 AUDIO
    TITLE "0:"
    INDEX 01 01:14:65
  TRACK 74 AUDIO
    TITLE "6:cjc083_2767"
    INDEX 01 01:15:35
  TRACK 75 AUDIO
    TITLE "0:"
    INDEX 01 01:17:20
  TRACK 76 AUDIO
    TITLE "7:cjc083_2768"
    INDEX 01 01:18:56
  TRACK 77 AUDIO
    TITLE "0:"
    INDEX 01 01:28:45
  TRACK 78 AUDIO
    TITLE "4:cjc083_2769"
    INDEX 01 01:31:18
  TRACK 79 AUDIO
    TITLE "0:"
    INDEX 01 01:34:24
